<?xml version="1.0" encoding="utf-8"?>
<?xml-stylesheet href="../../fontsStyleSheet.css" type="text/css"?>
<svg xmlns="http://www.w3.org/2000/svg"
	width="500"
	height="292"
	viewBox="0 0 5000 2920">
	<defs>
		<style
			type="text/css"><![CDATA[
			@font-face
			{
				font-family: 'CLicht';
				src: url('https://github.com/notator/MNXtoSVG/fonts/clicht_plain-webfont.eot');
				src: url('https://github.com/notator/MNXtoSVG/fonts/clicht_plain-webfont.eot?#iefix') format('embedded-opentype'),
				url('https://github.com/notator/MNXtoSVG/fonts/clicht_plain-webfont.woff') format('woff'),
				url('https://github.com/notator/MNXtoSVG/fonts/clicht_plain-webfont.ttf') format('truetype'),
				url('https://github.com/notator/MNXtoSVG/fonts/clicht_plain-webfont.svg#webfontl9D2oOyX') format('svg');
				font-weight: normal;
				font-style: normal;
			}
			@font-face
			{
				font-family: 'Arial';
				src: url('https://github.com/notator/MNXtoSVG/fonts/arial.ttf') format('truetype');
				font-weight:400;
				font-style: normal;
			}
			@font-face
			{
				font-family: 'Open Sans';
				src: url('https://github.com/notator/MNXtoSVG/fonts/OpenSans-Regular.ttf') format('truetype');
				font-weight:400;
				font-style: normal;
			}
			@font-face
			{
				font-family: 'Open Sans Condensed';
				src: url('https://github.com/notator/MNXtoSVG/fonts/OpenSans-CondBold.ttf') format('truetype');
				font-weight:600;
				font-style: normal;
			}
		    .mainTitle
            {
                font-family:"Open Sans";
                font-size:0px;
                text-anchor:middle
            }
            .author
            {
                font-family:"Open Sans";
                font-size:0px;
                text-anchor:end
            }
            .notehead, .clef
            {
                font-family:CLicht
            }
            .notehead, .clef
            {
                font-size:392px
            }
            .timeStamp, .barNumberNumber, .timeSigNumerator, .timeSigDenominator
            {
                font-family:Arial
            }
            .timeStamp
            {
                font-size:150px
            }
            .timeSigNumerator, .timeSigDenominator
            {
                font-size:420px
            }
            .barNumberNumber
            {
                font-size:199.92px;
                text-anchor:middle
            }
            .backgroundFill
            {
                fill:white                
            }
            .staffline, .stem
            {
                stroke:black;
                stroke-width:15px;
                fill:black
            }
            .stem
            {
                stroke-linecap:round                
            }
            .normalBarline
            {
                stroke:black;
                stroke-width:30px
            }
            .thickBarline
            {
                stroke:black;
                stroke-width:60px
            }
            .barNumberFrame
            {
                stroke:black;
                stroke-width:18px;
                fill:none
            }
            .tie
            {
                stroke:black;
                stroke-width:3.75px;               
            }
            ]]></style>
		<g
			id="trebleClef">
			<text
				class="clef">&amp;</text>
		</g>
		<g
			id="timeSig_4/4">
			<text
				class="timeSigNumerator"
				x="0"
				y="0">4</text>
			<text
				class="timeSigDenominator"
				x="0"
				y="303.2">4</text>
		</g>
	</defs>
	<rect
		class="backgroundFill"
		x="0"
		y="0"
		width="5000"
		height="2920" />
	<g
		class="systems">
		<text
			class="timeStamp"
			x="32"
			y="150">__8_ties (graphics only) - two systems.svg, Friday 10.07.2020, 13:08:11</text>
		<g
			class="system">
			<g
				class="staff"
				staffName="">
				<g
					class="stafflines">
					<line
						class="staffline"
						x1="300"
						y1="500"
						x2="4700"
						y2="500" />
					<line
						class="staffline"
						x1="300"
						y1="600"
						x2="4700"
						y2="600" />
					<line
						class="staffline"
						x1="300"
						y1="700"
						x2="4700"
						y2="700" />
					<line
						class="staffline"
						x1="300"
						y1="800"
						x2="4700"
						y2="800" />
					<line
						class="staffline"
						x1="300"
						y1="900"
						x2="4700"
						y2="900" />
				</g>
				<g
					class="voice">
					<use
						class="clef"
						href="#trebleClef"
						x="300"
						y="800" />
					<line
						class="normalBarline"
						x1="625"
						y1="500"
						x2="625"
						y2="900" />
					<use
						class="timeSig"
						href="#timeSig_4/4"
						x="673.3333"
						y="700" />
					<g
						class="chord">
						<g
							class="graphics">
							<line
								class="stem"
								x1="1008.153"
								y1="661.5499"
								x2="1008.153"
								y2="1010" />
							<text
								class="notehead"
								x="1000.653"
								y="650">œ</text>
						</g>
					</g>
					<g
						class="chord">
						<g
							class="graphics">
							<line
								class="stem"
								x1="1911.105"
								y1="561.5499"
								x2="1911.105"
								y2="910" />
							<text
								class="notehead"
								x="1903.605"
								y="550">œ</text>
							<path
								class="tie"
								d="m 37.5 -68.75 c 43.75 -96.875 193.75 -96.875 218.75 -96.875 h 390.451781321081 c 25 0 175 0 218.75 96.875 c -43.75 -65.625 -193.75 -65.625 -218.75 -65.625 h -390.451781321081 c -25 0 -175 0 -218.75 65.625"
								transform="translate(1961.145,550)" />
						</g>
					</g>
					<g
						class="chord">
						<g
							class="graphics">
							<line
								class="stem"
								x1="2814.057"
								y1="561.5499"
								x2="2814.057"
								y2="910" />
							<text
								class="notehead"
								x="2806.557"
								y="550">œ</text>
						</g>
					</g>
					<g
						class="chord">
						<g
							class="graphics">
							<line
								class="stem"
								x1="3717.009"
								y1="661.5499"
								x2="3717.009"
								y2="1010" />
							<text
								class="notehead"
								x="3709.509"
								y="650">œ</text>
							<path
								class="tie"
								d="m 37.5 -68.75 c 43.75 -96.875 193.75 -96.875 218.75 -96.875 h 525.451781321081 c 25 0 175 0 218.75 96.875 c -43.75 -65.625 -193.75 -65.625 -218.75 -65.625 h -525.451781321081 c -25 0 -175 0 -218.75 65.625"
								transform="translate(3767.048,650)" />
						</g>
					</g>
					<line
						class="normalBarline"
						x1="4685"
						y1="492.5"
						x2="4685"
						y2="907.5" />
				</g>
			</g>
		</g>
		<g
			class="system">
			<g
				class="staff"
				staffName="">
				<g
					class="stafflines">
					<line
						class="staffline"
						x1="300"
						y1="1900"
						x2="4700"
						y2="1900" />
					<line
						class="staffline"
						x1="300"
						y1="2000"
						x2="4700"
						y2="2000" />
					<line
						class="staffline"
						x1="300"
						y1="2100"
						x2="4700"
						y2="2100" />
					<line
						class="staffline"
						x1="300"
						y1="2200"
						x2="4700"
						y2="2200" />
					<line
						class="staffline"
						x1="300"
						y1="2300"
						x2="4700"
						y2="2300" />
				</g>
				<g
					class="voice">
					<use
						class="clef"
						href="#trebleClef"
						x="300"
						y="2200" />
					<line
						class="normalBarline"
						x1="625"
						y1="1900"
						x2="625"
						y2="2300" />
					<g
						class="barNumber">
						<rect
							class="barNumberFrame"
							x="490.8"
							y="1338"
							width="268.4"
							height="262" />
						<text
							class="barNumberNumber"
							x="625"
							y="1540">2</text>
					</g>
					<g
						class="chord">
						<g
							class="graphics">
							<line
								class="stem"
								x1="813.18"
								y1="2061.55"
								x2="813.18"
								y2="2410" />
							<text
								class="notehead"
								x="805.68"
								y="2050">˙</text>
							<path
								class="tie"
								d="m 37.5 -68.75 c 43.75 -96.875 193.75 -96.875 218.75 -96.875 c 25 0 175 0 218.75 96.875 c -43.75 -65.625 -193.75 -65.625 -218.75 -65.625 c -25 0 -175 0 -218.75 65.625"
								transform="translate(525,2050) scale(0.6599,1)" />
							<path
								class="tie"
								d="m 37.5 -68.75 c 43.75 -96.875 193.75 -96.875 218.75 -96.875 h 1338.39022930883 c 25 0 175 0 218.75 96.875 c -43.75 -65.625 -193.75 -65.625 -218.75 -65.625 h -1338.39022930883 c -25 0 -175 0 -218.75 65.625"
								transform="translate(863.2195,2050)" />
						</g>
					</g>
					<g
						class="chord">
						<g
							class="graphics">
							<line
								class="stem"
								x1="2664.07"
								y1="2061.55"
								x2="2664.07"
								y2="2410" />
							<text
								class="notehead"
								x="2656.57"
								y="2050">˙</text>
						</g>
					</g>
					<g
						class="endOfScoreBarline">
						<line
							class="normalBarline"
							x1="4580"
							y1="1892.5"
							x2="4580"
							y2="2307.5" />
						<line
							class="thickBarline"
							x1="4670"
							y1="1892.5"
							x2="4670"
							y2="2307.5" />
					</g>
				</g>
			</g>
		</g>
	</g>
	<!-- Annotations that are added here will be ignored by the AssistantPerformer. -->
</svg>